<svg width="1279" height="457" viewBox="0 0 1279 457" fill="none" xmlns="http://www.w3.org/2000/svg">
<path d="M485.922 100.043V99.4697C485.922 83.9955 496.576 73.1943 510.904 73.1943C522.704 73.1943 531.845 79.1019 533.006 91.1962H523.292C522.205 84.3628 518.399 80.8359 510.978 80.8359C501.91 80.8359 496.003 87.8897 496.003 99.4109V99.9841C496.003 111.579 501.543 118.412 511.051 118.412C518.178 118.412 523.219 114.812 524.218 107.538H533.579C532.065 119.926 523.278 126.186 511.051 126.186C494.915 126.171 485.922 115.87 485.922 100.043Z" fill="#2C56DD"/>
<path d="M543.205 100.043V99.47C543.205 84.4219 554.006 73.2681 569.26 73.2681C584.587 73.2681 595.182 84.1427 595.182 99.2495V99.8227C595.182 114.871 584.881 126.172 569.26 126.172C553.491 126.172 543.205 114.871 543.205 100.043ZM585.248 99.8961V99.323C585.248 88.7423 579.341 80.895 569.26 80.895C559.179 80.895 553.212 88.3015 553.212 99.3965V99.9696C553.212 111.197 560.046 118.471 569.407 118.471C579.12 118.471 585.248 111.05 585.248 99.8961Z" fill="#2C56DD"/>
<path d="M606.894 73.9883H618.342L640.018 111.197V73.9883H648.717V125.452H638.783L615.608 86.0091V125.452H606.894V73.9883Z" fill="#2C56DD"/>
<path d="M660.944 109.463H670.158C670.805 114.65 672.892 118.971 681.606 118.971C687.293 118.971 691.32 115.811 691.32 111.05C691.32 106.303 688.939 104.496 680.592 103.129C668.277 101.468 662.458 97.7357 662.458 88.0809C662.458 79.6604 669.659 73.3267 680.386 73.3267C691.467 73.3267 698.094 78.3672 699.094 88.2278H690.32C689.38 82.8346 686.279 80.5274 680.386 80.5274C674.552 80.5274 671.54 83.3342 671.54 87.302C671.54 91.4755 673.259 93.5622 682.194 94.8554C694.288 96.516 700.548 99.9694 700.548 110.256C700.548 119.191 692.995 126.171 681.621 126.171C667.572 126.171 661.664 119.191 660.944 109.463Z" fill="#2C56DD"/>
<path d="M713.054 73.9883H745.237V81.5417H722.636V95.6493H740.784V102.85H722.636V117.898H746.457V125.452H713.054V73.9883Z" fill="#2C56DD"/>
<path d="M758.669 73.9883H770.117L791.792 111.197V73.9883H800.492V125.452H790.558L767.383 86.0091V125.452H758.669V73.9883Z" fill="#2C56DD"/>
<path d="M812.733 109.463H821.947C822.594 114.65 824.681 118.971 833.395 118.971C839.082 118.971 843.109 115.811 843.109 111.05C843.109 106.303 840.728 104.496 832.381 103.129C820.066 101.468 814.247 97.7357 814.247 88.0809C814.247 79.6604 821.448 73.3267 832.175 73.3267C843.256 73.3267 849.883 78.3672 850.883 88.2278H842.11C841.169 82.8346 838.083 80.5274 832.175 80.5274C826.341 80.5274 823.329 83.3342 823.329 87.302C823.329 91.4755 825.048 93.5622 833.983 94.8554C846.077 96.516 852.337 99.9694 852.337 110.256C852.337 119.191 844.784 126.171 833.41 126.171C819.346 126.171 813.453 119.191 812.733 109.463Z" fill="#2C56DD"/>
<path d="M874.704 103.129L857.643 73.9731H868.223L879.818 95.2815L891.119 73.9731H900.48L884.359 103.202V125.451H874.719V103.129H874.704Z" fill="#2C56DD"/>
<path d="M905.857 109.463H915.071C915.718 114.65 917.805 118.971 926.519 118.971C932.206 118.971 936.233 115.811 936.233 111.05C936.233 106.303 933.852 104.496 925.505 103.129C913.19 101.468 907.371 97.7357 907.371 88.0809C907.371 79.6604 914.572 73.3267 925.299 73.3267C936.38 73.3267 943.007 78.3672 944.007 88.2278H935.234C934.293 82.8346 931.207 80.5274 925.299 80.5274C919.465 80.5274 916.453 83.3342 916.453 87.302C916.453 91.4755 918.172 93.5622 927.107 94.8554C939.201 96.516 945.461 99.9694 945.461 110.256C945.461 119.191 937.908 126.171 926.534 126.171C912.47 126.171 906.577 119.191 905.857 109.463Z" fill="#2C56DD"/>
<path d="M492.177 348.949H528.602C529.706 348.949 530.602 348.054 530.602 346.949V215.919L582.836 347.686C583.138 348.449 583.875 348.949 584.695 348.949H596.021C596.842 348.949 597.58 348.447 597.881 347.683L649.852 215.919V346.949C649.852 348.054 650.747 348.949 651.852 348.949H690.517C691.621 348.949 692.517 348.054 692.517 346.949V161.474C692.517 160.37 691.621 159.474 690.517 159.474H638.258C637.422 159.474 636.674 159.995 636.383 160.779L593.142 277.399L549.374 160.772C549.081 159.991 548.335 159.474 547.501 159.474H494.177C493.072 159.474 492.177 160.37 492.177 161.474V348.949Z" fill="#2C56DD"/>
<path d="M735.364 393.379C734.841 394.693 735.809 396.119 737.222 396.119H770.024C770.839 396.119 771.573 395.624 771.878 394.868L845.258 213.103C845.789 211.788 844.821 210.354 843.404 210.354H810.922C810.087 210.354 809.34 210.873 809.048 211.656L778.528 293.564L745.379 211.604C745.073 210.849 744.34 210.354 743.525 210.354H706.605C705.159 210.354 704.191 211.841 704.776 213.164L758.653 334.904L735.364 393.379Z" fill="#2C56DD"/>
<path d="M916.547 351.599C926.04 351.599 933.297 350.034 938.524 348.342C939.333 348.08 939.867 347.32 939.867 346.47V318.209C935.362 320.064 931.122 320.859 925.292 320.859C915.487 320.859 909.922 315.559 909.922 304.429V237.649H937.072C938.177 237.649 939.072 236.754 939.072 235.649V212.354C939.072 211.25 938.177 210.354 937.072 210.354H909.922V182.409C909.922 181.305 909.027 180.409 907.922 180.409H873.762C872.658 180.409 871.762 181.305 871.762 182.409V210.354H856.007C854.903 210.354 854.007 211.25 854.007 212.354V235.649C854.007 236.754 854.903 237.649 856.007 237.649H871.762V307.874C871.762 336.759 887.397 351.599 916.547 351.599Z" fill="#2C56DD"/>
<path d="M955.375 346.949C955.375 348.054 956.27 348.949 957.375 348.949H991.8C992.904 348.949 993.8 348.054 993.8 346.949V268.919C993.8 248.514 1006.25 238.444 1022.68 238.444C1039.64 238.444 1047.06 247.454 1047.06 266.269V346.949C1047.06 348.054 1047.96 348.949 1049.06 348.949H1083.49C1084.59 348.949 1085.49 348.054 1085.49 346.949V260.704C1085.49 223.604 1066.14 207.174 1038.85 207.174C1015.79 207.174 1000.69 218.569 993.8 232.349V149.549C993.8 148.445 992.904 147.549 991.8 147.549H957.375C956.27 147.549 955.375 148.445 955.375 149.549V346.949Z" fill="#2C56DD"/>
<path d="M1105.84 345.897C1105.02 347.23 1105.97 348.949 1107.54 348.949H1146.79C1147.5 348.949 1148.16 348.569 1148.52 347.951L1188.75 278.459L1229.25 347.956C1229.61 348.571 1230.26 348.949 1230.98 348.949H1275.03C1276.59 348.949 1277.55 347.244 1276.74 345.911L1218.7 250.369L1270.96 162.497C1271.75 161.164 1270.79 159.474 1269.24 159.474H1229.93C1229.21 159.474 1228.55 159.861 1228.19 160.488L1192.99 222.544L1157.53 160.482C1157.17 159.859 1156.51 159.474 1155.79 159.474H1112C1110.44 159.474 1109.48 161.175 1110.29 162.508L1164.11 251.694L1105.84 345.897Z" fill="#2C56DD"/>
<path d="M208.909 455.424C208.469 455.424 208.175 455.718 208.175 456.158C208.175 456.599 208.469 456.892 208.909 456.892C209.349 456.892 209.643 456.599 209.643 456.158C209.643 455.718 209.349 455.424 208.909 455.424Z" fill="#2C56DD"/>
<path d="M187.201 447.937C186.32 447.937 185.586 448.67 185.586 449.551C185.586 450.432 186.32 451.166 187.201 451.166C188.081 451.166 188.815 450.432 188.815 449.551C188.815 448.524 188.081 447.937 187.201 447.937Z" fill="#2C56DD"/>
<path d="M166.49 438.104C165.169 438.104 164.141 439.132 164.141 440.453C164.141 441.774 165.169 442.801 166.49 442.801C167.811 442.801 168.838 441.774 168.838 440.453C168.838 439.279 167.664 438.104 166.49 438.104Z" fill="#2C56DD"/>
<path d="M146.677 426.213C144.916 426.213 143.595 427.681 143.595 429.295C143.595 431.056 144.916 432.377 146.677 432.377C148.438 432.377 149.759 430.91 149.759 429.295C149.759 427.681 148.438 426.213 146.677 426.213Z" fill="#2C56DD"/>
<path d="M128.199 412.418C125.998 412.418 124.236 414.179 124.236 416.381C124.236 418.582 125.998 420.344 128.199 420.344C130.401 420.344 132.162 418.582 132.162 416.381C132.162 414.179 130.401 412.418 128.199 412.418Z" fill="#2C56DD"/>
<path d="M111.31 396.565C108.669 396.565 106.614 398.62 106.614 401.262C106.614 403.904 108.669 405.958 111.31 405.958C113.952 405.958 116.007 403.904 116.007 401.262C116.007 398.767 113.805 396.565 111.31 396.565Z" fill="#2C56DD"/>
<path d="M95.9002 379.102C92.8179 379.102 90.4695 381.597 90.4695 384.533C90.4695 387.468 92.9647 389.963 95.9002 389.963C98.9825 389.963 101.331 387.468 101.331 384.533C101.478 381.597 98.9825 379.102 95.9002 379.102Z" fill="#2C56DD"/>
<path d="M82.5403 360.164C79.1645 360.164 76.3757 362.953 76.3757 366.475C76.3757 369.851 79.1645 372.787 82.5403 372.787C86.0629 372.787 88.8516 369.998 88.8516 366.475C88.7048 362.953 85.9161 360.164 82.5403 360.164Z" fill="#2C56DD"/>
<path d="M78.574 346.666C78.574 342.85 75.4917 339.621 71.5288 339.621C67.7127 339.621 64.4836 342.85 64.4836 346.666C64.4836 350.482 67.5659 353.711 71.5288 353.711C75.3449 353.564 78.574 350.482 78.574 346.666Z" fill="#2C56DD"/>
<path d="M70.9599 325.521C70.9599 321.264 67.4374 317.742 63.1809 317.742C58.9244 317.742 55.4019 321.264 55.4019 325.521C55.4019 329.777 58.9244 333.299 63.1809 333.299C67.5841 333.299 70.9599 329.777 70.9599 325.521Z" fill="#2C56DD"/>
<path d="M66.2476 303.505C66.2476 298.808 62.4315 294.992 57.7348 294.992C53.038 294.992 49.2219 298.808 49.2219 303.505C49.2219 308.202 53.038 312.018 57.7348 312.018C62.4315 312.165 66.2476 308.349 66.2476 303.505Z" fill="#2C56DD"/>
<path d="M64.4911 281.057C64.4911 275.92 60.2346 271.664 55.0975 271.664C49.9603 271.664 45.7039 275.773 45.7039 281.057C45.7039 286.194 49.9603 290.451 55.0975 290.451C60.3814 290.451 64.4911 286.194 64.4911 281.057Z" fill="#2C56DD"/>
<path d="M55.5417 268.576C61.1191 268.576 65.6691 264.026 65.6691 258.449C65.6691 252.872 61.1191 248.322 55.5417 248.322C49.9643 248.322 45.4143 252.872 45.4143 258.449C45.4143 264.026 49.9643 268.576 55.5417 268.576Z" fill="#2C56DD"/>
<path d="M48.0649 235.992C48.0649 242.01 52.9085 246.854 58.9262 246.854C64.944 246.854 69.7875 242.01 69.7875 235.992C69.7875 229.975 64.944 225.131 58.9262 225.131C52.9085 225.131 48.0649 229.975 48.0649 235.992Z" fill="#2C56DD"/>
<path d="M375.806 403.318C375.366 403.318 375.072 403.612 375.072 404.052C375.072 404.492 375.366 404.786 375.806 404.786C376.246 404.786 376.54 404.492 376.54 404.052C376.393 403.612 376.1 403.318 375.806 403.318Z" fill="#2C56DD"/>
<path d="M355.686 413.152C354.952 413.152 354.365 413.739 354.365 414.473C354.365 415.207 354.952 415.94 355.686 415.94C356.42 415.94 357.007 415.353 357.007 414.473C357.007 413.739 356.42 413.152 355.686 413.152Z" fill="#2C56DD"/>
<path d="M334.701 420.783C333.527 420.783 332.646 421.664 332.646 422.838C332.646 424.012 333.527 424.893 334.701 424.893C335.875 424.893 336.756 424.012 336.756 422.838C336.756 421.664 335.729 420.783 334.701 420.783Z" fill="#2C56DD"/>
<path d="M312.834 426.212C311.366 426.212 310.045 427.387 310.045 429.001C310.045 430.469 311.22 431.79 312.834 431.79C314.302 431.79 315.623 430.616 315.623 429.001C315.623 427.387 314.302 426.212 312.834 426.212Z" fill="#2C56DD"/>
<path d="M290.543 429.297C288.635 429.297 287.021 430.911 287.021 432.673C287.021 434.581 288.635 436.195 290.543 436.195C292.451 436.195 293.919 434.727 293.919 432.673C293.919 430.911 292.451 429.297 290.543 429.297Z" fill="#2C56DD"/>
<path d="M267.923 430.031C265.574 430.031 263.813 431.939 263.813 434.141C263.813 436.342 265.574 438.25 267.923 438.25C270.124 438.25 272.033 436.342 272.033 434.141C272.033 431.792 270.271 430.031 267.923 430.031Z" fill="#2C56DD"/>
<path d="M245.321 428.415C242.679 428.415 240.478 430.616 240.478 433.258C240.478 435.9 242.679 438.102 245.321 438.102C247.963 438.102 250.165 435.9 250.165 433.258C250.165 430.469 247.963 428.415 245.321 428.415Z" fill="#2C56DD"/>
<path d="M222.868 424.309C219.786 424.309 217.291 426.804 217.291 429.886C217.291 432.968 219.786 435.463 222.868 435.463C225.95 435.463 228.445 432.968 228.445 429.886C228.445 426.804 225.95 424.309 222.868 424.309Z" fill="#2C56DD"/>
<path d="M201.13 417.407C197.754 417.407 194.965 420.195 194.965 423.571C194.965 426.947 197.754 429.736 201.13 429.736C204.505 429.736 207.294 426.947 207.294 423.571C207.294 420.195 204.505 417.407 201.13 417.407Z" fill="#2C56DD"/>
<path d="M180.454 407.717C176.638 407.717 173.556 410.799 173.556 414.615C173.556 418.431 176.638 421.514 180.454 421.514C184.271 421.514 187.353 418.431 187.353 414.615C187.206 410.799 184.124 407.717 180.454 407.717Z" fill="#2C56DD"/>
<path d="M168.558 402.879C168.558 398.623 165.182 395.247 160.925 395.247C156.669 395.247 153.293 398.623 153.293 402.879C153.293 407.136 156.669 410.512 160.925 410.512C165.182 410.512 168.558 407.136 168.558 402.879Z" fill="#2C56DD"/>
<path d="M143.304 380.569C138.754 380.569 135.085 384.238 135.085 388.788C135.085 393.338 138.754 397.007 143.304 397.007C147.854 397.007 151.524 393.338 151.524 388.788C151.524 384.238 147.854 380.569 143.304 380.569Z" fill="#2C56DD"/>
<path d="M127.618 363.541C122.628 363.541 118.665 367.503 118.665 372.494C118.665 377.484 122.628 381.447 127.618 381.447C132.608 381.447 136.571 377.484 136.571 372.494C136.571 367.503 132.462 363.541 127.618 363.541Z" fill="#2C56DD"/>
<path d="M114.11 363.983C119.394 363.983 123.797 359.727 123.797 354.296C123.797 349.012 119.541 344.609 114.11 344.609C108.826 344.609 104.423 348.865 104.423 354.296C104.423 359.58 108.826 363.983 114.11 363.983Z" fill="#2C56DD"/>
<path d="M113.528 334.478C113.528 328.754 108.978 324.204 103.254 324.204C97.5295 324.204 92.9795 328.901 92.9795 334.478C92.9795 340.202 97.5295 344.752 103.254 344.752C108.831 344.752 113.528 340.202 113.528 334.478Z" fill="#2C56DD"/>
<path d="M456.823 248.472C456.529 248.472 456.236 248.765 456.236 249.059C456.236 249.352 456.529 249.646 456.823 249.646C457.116 249.646 457.41 249.352 457.41 249.059C457.41 248.618 457.116 248.472 456.823 248.472Z" fill="#2C56DD"/>
<path d="M450.059 269.456C449.325 269.456 448.885 270.043 448.885 270.63C448.885 271.364 449.472 271.804 450.059 271.804C450.793 271.804 451.233 271.217 451.233 270.63C451.38 269.896 450.793 269.456 450.059 269.456Z" fill="#2C56DD"/>
<path d="M441.126 289.568C440.098 289.568 439.218 290.449 439.218 291.476C439.218 292.503 440.098 293.384 441.126 293.384C442.153 293.384 443.034 292.503 443.034 291.476C443.034 290.449 442.153 289.568 441.126 289.568Z" fill="#2C56DD"/>
<path d="M429.973 308.649C428.652 308.649 427.478 309.677 427.478 311.145C427.478 312.465 428.652 313.64 429.973 313.64C431.294 313.64 432.469 312.612 432.469 311.145C432.469 309.824 431.441 308.649 429.973 308.649Z" fill="#2C56DD"/>
<path d="M416.889 326.555C415.128 326.555 413.807 327.876 413.807 329.637C413.807 331.252 415.128 332.719 416.889 332.719C418.65 332.719 419.971 331.399 419.971 329.637C419.971 327.876 418.65 326.555 416.889 326.555Z" fill="#2C56DD"/>
<path d="M401.918 342.843C399.864 342.843 398.249 344.457 398.249 346.512C398.249 348.567 399.864 350.182 401.918 350.182C403.973 350.182 405.588 348.567 405.588 346.512C405.588 344.604 403.973 342.843 401.918 342.843Z" fill="#2C56DD"/>
<path d="M385.202 357.521C382.854 357.521 380.946 359.43 380.946 361.778C380.946 364.126 382.854 366.181 385.202 366.181C387.551 366.181 389.606 364.273 389.606 361.778C389.606 359.576 387.698 357.521 385.202 357.521Z" fill="#2C56DD"/>
<path d="M366.991 370.438C364.349 370.438 362 372.64 362 375.429C362 378.218 364.202 380.419 366.991 380.419C369.633 380.419 371.834 378.218 371.834 375.429C371.981 372.64 369.779 370.438 366.991 370.438Z" fill="#2C56DD"/>
<path d="M347.18 380.862C344.097 380.862 341.602 383.357 341.602 386.439C341.602 389.522 344.097 392.017 347.18 392.017C350.262 392.017 352.757 389.522 352.757 386.439C352.757 383.357 350.262 380.862 347.18 380.862Z" fill="#2C56DD"/>
<path d="M326.187 388.492C322.811 388.492 320.022 391.281 320.022 394.657C320.022 398.033 322.811 400.821 326.187 400.821C329.563 400.821 332.351 398.033 332.351 394.657C332.351 391.281 329.563 388.492 326.187 388.492Z" fill="#2C56DD"/>
<path d="M304.162 393.338C300.493 393.338 297.411 396.42 297.411 400.089C297.411 403.759 300.493 406.841 304.162 406.841C307.978 406.841 310.914 403.759 310.914 400.089C310.914 396.42 307.978 393.338 304.162 393.338Z" fill="#2C56DD"/>
<path d="M281.724 395.247C277.614 395.247 274.385 398.623 274.385 402.732C274.385 406.842 277.761 410.071 281.724 410.071C285.834 410.071 289.063 406.695 289.063 402.732C289.063 398.623 285.834 395.247 281.724 395.247Z" fill="#2C56DD"/>
<path d="M267.044 402.287C267.044 397.884 263.521 394.214 258.971 394.214C254.568 394.214 250.899 397.884 250.899 402.287C250.899 406.69 254.421 410.359 258.971 410.359C263.521 410.359 267.044 406.69 267.044 402.287Z" fill="#2C56DD"/>
<path d="M245.31 398.913C245.31 394.069 241.494 390.253 236.651 390.253C231.954 390.253 227.991 394.069 227.991 398.913C227.991 403.61 231.807 407.573 236.651 407.573C241.494 407.573 245.31 403.61 245.31 398.913Z" fill="#2C56DD"/>
<path d="M224.193 392.602C224.193 387.465 220.083 383.355 214.946 383.355C209.809 383.355 205.699 387.465 205.699 392.602C205.699 397.739 209.809 401.849 214.946 401.849C220.083 401.996 224.193 397.739 224.193 392.602Z" fill="#2C56DD"/>
<path d="M204.074 383.65C204.074 378.219 199.67 373.816 194.24 373.816C188.809 373.816 184.406 378.219 184.406 383.65C184.406 389.08 188.809 393.484 194.24 393.484C199.67 393.484 204.074 389.08 204.074 383.65Z" fill="#2C56DD"/>
<path d="M404.568 82.7582C404.862 82.7582 405.156 82.4646 405.156 82.1711C405.156 81.8775 404.862 81.584 404.568 81.584C404.275 81.584 403.981 81.8775 403.981 82.1711C403.981 82.4646 404.275 82.7582 404.568 82.7582Z" fill="#2C56DD"/>
<path d="M415.132 103.455C415.719 103.455 416.306 102.868 416.306 102.281C416.306 101.547 415.719 101.106 415.132 101.106C414.398 101.106 413.958 101.694 413.958 102.281C413.958 102.868 414.398 103.455 415.132 103.455Z" fill="#2C56DD"/>
<path d="M423.502 125.035C424.53 125.035 425.411 124.155 425.411 123.127C425.411 122.1 424.53 121.219 423.502 121.219C422.475 121.219 421.594 122.1 421.594 123.127C421.594 124.301 422.475 125.035 423.502 125.035Z" fill="#2C56DD"/>
<path d="M429.674 147.492C430.995 147.492 432.169 146.465 432.169 144.997C432.169 143.676 430.995 142.502 429.674 142.502C428.353 142.502 427.179 143.676 427.179 144.997C427.179 146.318 428.206 147.492 429.674 147.492Z" fill="#2C56DD"/>
<path d="M430.253 167.308C430.253 169.069 431.721 170.39 433.335 170.39C435.097 170.39 436.418 169.069 436.418 167.308C436.418 165.547 435.097 164.226 433.335 164.226C431.721 164.226 430.253 165.693 430.253 167.308Z" fill="#2C56DD"/>
<path d="M434.804 186.242C432.749 186.242 431.135 187.856 431.135 189.911C431.135 191.966 432.749 193.58 434.804 193.58C436.859 193.58 438.473 191.966 438.473 189.911C438.473 187.856 436.859 186.242 434.804 186.242Z" fill="#2C56DD"/>
<path d="M433.773 208.251C431.424 208.251 429.516 210.16 429.516 212.508C429.516 214.856 431.424 216.911 433.773 216.911C436.121 216.911 438.176 215.003 438.176 212.508C438.176 210.16 436.121 208.251 433.773 208.251Z" fill="#2C56DD"/>
<path d="M430.392 229.976C427.603 229.976 425.401 232.178 425.401 234.966C425.401 237.755 427.603 239.957 430.392 239.957C433.18 239.957 435.382 237.755 435.382 234.966C435.382 232.178 433.18 229.976 430.392 229.976Z" fill="#2C56DD"/>
<path d="M429.813 256.691C429.813 253.609 427.318 251.114 424.236 251.114C421.153 251.114 418.658 253.609 418.658 256.691C418.658 259.773 421.153 262.269 424.236 262.269C427.318 262.269 429.813 259.773 429.813 256.691Z" fill="#2C56DD"/>
<path d="M415.111 271.365C411.735 271.365 408.947 274.154 408.947 277.529C408.947 280.905 411.735 283.694 415.111 283.694C418.487 283.694 421.276 280.905 421.276 277.529C421.276 274.154 418.634 271.365 415.111 271.365Z" fill="#2C56DD"/>
<path d="M403.555 290.154C399.739 290.154 396.803 293.236 396.803 296.905C396.803 300.721 399.886 303.657 403.555 303.657C407.371 303.657 410.307 300.575 410.307 296.905C410.307 293.236 407.371 290.154 403.555 290.154Z" fill="#2C56DD"/>
<path d="M389.452 307.181C385.342 307.181 382.113 310.556 382.113 314.519C382.113 318.629 385.489 322.005 389.452 322.005C393.415 322.005 396.791 318.629 396.791 314.519C396.791 310.556 393.562 307.181 389.452 307.181Z" fill="#2C56DD"/>
<path d="M373.157 322.295C368.754 322.295 365.085 325.964 365.085 330.368C365.085 334.771 368.608 338.44 373.157 338.44C377.561 338.44 381.23 334.771 381.23 330.368C381.083 325.964 377.561 322.295 373.157 322.295Z" fill="#2C56DD"/>
<path d="M354.964 335.212C350.121 335.212 346.305 339.028 346.305 343.872C346.305 348.569 350.121 352.531 354.964 352.531C359.808 352.531 363.624 348.715 363.624 343.872C363.624 339.028 359.661 335.212 354.964 335.212Z" fill="#2C56DD"/>
<path d="M335.15 345.487C330.013 345.487 325.903 349.596 325.903 354.734C325.903 359.871 330.013 363.98 335.15 363.98C340.287 363.98 344.397 359.871 344.397 354.734C344.397 349.596 340.287 345.487 335.15 345.487Z" fill="#2C56DD"/>
<path d="M313.996 353.118C308.565 353.118 304.162 357.521 304.162 362.952C304.162 368.382 308.565 372.786 313.996 372.786C319.427 372.786 323.83 368.382 323.83 362.952C323.977 357.521 319.427 353.118 313.996 353.118Z" fill="#2C56DD"/>
<path d="M249.738 1.59663C250.031 1.59663 250.325 1.30307 250.325 1.0095C250.325 0.715931 250.031 0.422363 249.738 0.422363C249.444 0.422363 249.15 0.715931 249.15 1.0095C249.004 1.44985 249.297 1.59663 249.738 1.59663Z" fill="#2C56DD"/>
<path d="M271.304 8.93439C272.038 8.93439 272.478 8.34727 272.478 7.76016C272.478 7.02627 271.891 6.58594 271.304 6.58594C270.57 6.58594 270.13 7.17305 270.13 7.76016C269.983 8.49405 270.57 8.93439 271.304 8.93439Z" fill="#2C56DD"/>
<path d="M291.989 18.6237C293.017 18.6237 293.897 17.7431 293.897 16.7157C293.897 15.6883 293.017 14.8076 291.989 14.8076C290.962 14.8076 290.081 15.6883 290.081 16.7157C290.228 17.7431 291.108 18.6237 291.989 18.6237Z" fill="#2C56DD"/>
<path d="M311.807 30.3642C313.128 30.3642 314.302 29.1901 314.302 27.8691C314.302 26.5482 313.274 25.374 311.807 25.374C310.486 25.374 309.312 26.5482 309.312 27.8691C309.312 29.1901 310.486 30.3642 311.807 30.3642Z" fill="#2C56DD"/>
<path d="M330.304 44.0151C332.065 44.0151 333.386 42.6941 333.386 40.9328C333.386 39.1715 332.065 37.8506 330.304 37.8506C328.543 37.8506 327.222 39.1715 327.222 40.9328C327.222 42.6941 328.543 44.0151 330.304 44.0151Z" fill="#2C56DD"/>
<path d="M347.165 59.5725C349.22 59.5725 350.835 57.958 350.835 55.9032C350.835 53.8484 349.22 52.2339 347.165 52.2339C345.11 52.2339 343.496 53.8484 343.496 55.9032C343.496 57.958 345.11 59.5725 347.165 59.5725Z" fill="#2C56DD"/>
<path d="M362.585 76.8907C364.934 76.8907 366.842 74.9826 366.842 72.6342C366.842 70.2858 364.934 68.231 362.585 68.231C360.237 68.231 358.182 70.139 358.182 72.6342C358.182 74.9826 360.09 76.8907 362.585 76.8907Z" fill="#2C56DD"/>
<path d="M375.959 95.8254C378.601 95.8254 380.802 93.6238 380.802 90.8351C380.802 88.0463 378.601 85.8447 375.959 85.8447C373.17 85.8447 370.969 88.0463 370.969 90.8351C371.116 93.6238 373.17 95.8254 375.959 95.8254Z" fill="#2C56DD"/>
<path d="M386.947 116.228C390.029 116.228 392.524 113.733 392.524 110.651C392.524 107.569 390.029 105.074 386.947 105.074C383.865 105.074 381.369 107.569 381.369 110.651C381.369 113.733 383.865 116.228 386.947 116.228Z" fill="#2C56DD"/>
<path d="M389.154 131.639C389.154 135.014 391.942 137.803 395.318 137.803C398.694 137.803 401.483 135.014 401.483 131.639C401.483 128.263 398.694 125.474 395.318 125.474C391.942 125.474 389.154 128.263 389.154 131.639Z" fill="#2C56DD"/>
<path d="M393.984 153.657C393.984 157.473 397.066 160.408 400.735 160.408C404.405 160.408 407.487 157.326 407.487 153.657C407.487 149.841 404.405 146.905 400.735 146.905C397.066 146.905 393.984 149.988 393.984 153.657Z" fill="#2C56DD"/>
<path d="M395.898 176.108C395.898 180.218 399.274 183.447 403.236 183.447C407.346 183.447 410.722 180.071 410.722 176.108C410.722 171.999 407.346 168.623 403.236 168.623C399.274 168.77 395.898 172.146 395.898 176.108Z" fill="#2C56DD"/>
<path d="M410.873 198.861C410.873 194.457 407.351 190.788 402.801 190.788C398.397 190.788 394.728 194.311 394.728 198.861C394.728 203.264 398.251 206.933 402.801 206.933C407.351 206.786 410.873 203.264 410.873 198.861Z" fill="#2C56DD"/>
<path d="M408.238 221.171C408.238 216.328 404.422 212.512 399.579 212.512C394.882 212.512 390.919 216.328 390.919 221.171C390.919 225.868 394.735 229.831 399.579 229.831C404.275 229.831 408.238 226.015 408.238 221.171Z" fill="#2C56DD"/>
<path d="M402.524 242.897C402.524 237.76 398.414 233.65 393.277 233.65C388.14 233.65 384.031 237.76 384.031 242.897C384.031 248.034 388.14 252.144 393.277 252.144C398.414 252.144 402.524 248.034 402.524 242.897Z" fill="#2C56DD"/>
<path d="M384.311 253.752C378.881 253.752 374.478 258.155 374.478 263.586C374.478 269.016 378.881 273.42 384.311 273.42C389.742 273.42 394.145 269.016 394.145 263.586C394.145 258.155 389.742 253.752 384.311 253.752Z" fill="#2C56DD"/>
<path d="M82.6976 53.8505C82.9912 53.8505 83.2847 53.557 83.2847 53.2634C83.2847 52.9698 82.9912 52.6763 82.6976 52.6763C82.4041 52.6763 82.1106 52.9698 82.1106 53.2634C82.1106 53.557 82.4041 53.8505 82.6976 53.8505Z" fill="#2C56DD"/>
<path d="M102.812 44.0168C103.546 44.0168 103.987 43.4297 103.987 42.8426C103.987 42.1088 103.399 41.6685 102.812 41.6685C102.078 41.6685 101.638 42.2555 101.638 42.8426C101.638 43.4297 102.078 44.0168 102.812 44.0168Z" fill="#2C56DD"/>
<path d="M123.807 36.2365C124.834 36.2365 125.715 35.3559 125.715 34.3285C125.715 33.3011 124.834 32.4204 123.807 32.4204C122.779 32.4204 121.899 33.3011 121.899 34.3285C122.045 35.3559 122.779 36.2365 123.807 36.2365Z" fill="#2C56DD"/>
<path d="M145.676 30.8062C146.997 30.8062 148.171 29.632 148.171 28.3111C148.171 26.9901 147.143 25.8159 145.676 25.8159C144.355 25.8159 143.181 26.9901 143.181 28.3111C143.181 29.632 144.355 30.8062 145.676 30.8062Z" fill="#2C56DD"/>
<path d="M167.97 27.5772C169.731 27.5772 171.052 26.2562 171.052 24.4949C171.052 22.7336 169.731 21.4126 167.97 21.4126C166.208 21.4126 164.887 22.7336 164.887 24.4949C164.887 26.2562 166.208 27.5772 167.97 27.5772Z" fill="#2C56DD"/>
<path d="M190.574 26.8425C192.629 26.8425 194.244 25.228 194.244 23.1732C194.244 21.1184 192.629 19.5039 190.574 19.5039C188.52 19.5039 186.905 21.1184 186.905 23.1732C186.905 25.0812 188.52 26.8425 190.574 26.8425Z" fill="#2C56DD"/>
<path d="M213.164 28.3078C215.512 28.3078 217.42 26.3998 217.42 24.0514C217.42 21.703 215.512 19.7949 213.164 19.7949C210.816 19.7949 208.908 21.703 208.908 24.0514C208.908 26.3998 210.816 28.3078 213.164 28.3078Z" fill="#2C56DD"/>
<path d="M235.618 32.4197C238.407 32.4197 240.608 30.2181 240.608 27.4293C240.608 24.6406 238.407 22.439 235.618 22.439C232.976 22.439 230.628 24.6406 230.628 27.4293C230.628 30.2181 232.829 32.4197 235.618 32.4197Z" fill="#2C56DD"/>
<path d="M257.371 39.1719C260.453 39.1719 262.949 36.6768 262.949 33.5945C262.949 30.5123 260.453 28.0171 257.371 28.0171C254.289 28.0171 251.794 30.5123 251.794 33.5945C251.794 36.6768 254.289 39.1719 257.371 39.1719Z" fill="#2C56DD"/>
<path d="M278.184 48.8538C281.56 48.8538 284.349 46.0651 284.349 42.6894C284.349 39.3136 281.56 36.5249 278.184 36.5249C274.809 36.5249 272.02 39.3136 272.02 42.6894C272.02 46.0651 274.662 48.8538 278.184 48.8538Z" fill="#2C56DD"/>
<path d="M290.827 54.2853C290.827 58.1014 293.909 61.0369 297.579 61.0369C301.395 61.0369 304.33 57.9546 304.33 54.2853C304.33 50.4692 301.248 47.5337 297.579 47.5337C293.763 47.5337 290.827 50.6159 290.827 54.2853Z" fill="#2C56DD"/>
<path d="M315.181 75.8656C319.29 75.8656 322.519 72.4898 322.519 68.3802C322.519 64.2705 319.143 61.0415 315.181 61.0415C311.071 61.0415 307.695 64.4173 307.695 68.3802C307.842 72.4898 311.071 75.8656 315.181 75.8656Z" fill="#2C56DD"/>
<path d="M330.869 92.7407C335.273 92.7407 338.942 89.2181 338.942 84.6682C338.942 80.265 335.273 76.5957 330.869 76.5957C326.466 76.5957 322.797 80.265 322.797 84.6682C322.944 89.2181 326.466 92.7407 330.869 92.7407Z" fill="#2C56DD"/>
<path d="M344.39 94.3579C339.547 94.3579 335.731 98.174 335.731 103.017C335.731 107.861 339.547 111.677 344.39 111.677C349.234 111.677 353.05 107.861 353.05 103.017C353.05 98.174 349.234 94.3579 344.39 94.3579Z" fill="#2C56DD"/>
<path d="M346.143 122.686C346.143 127.823 350.253 131.932 355.39 131.932C360.527 131.932 364.636 127.823 364.636 122.686C364.636 117.549 360.527 113.439 355.39 113.439C350.253 113.439 346.143 117.695 346.143 122.686Z" fill="#2C56DD"/>
<path d="M353.779 143.822C353.779 149.252 358.182 153.655 363.613 153.655C369.044 153.655 373.447 149.252 373.447 143.822C373.447 138.391 369.044 133.988 363.613 133.988C358.182 133.988 353.779 138.391 353.779 143.822Z" fill="#2C56DD"/>
<path d="M369.04 155.27C363.316 155.27 358.619 159.966 358.619 165.837C358.619 171.708 363.316 176.258 369.04 176.258C374.764 176.258 379.461 171.561 379.461 165.837C379.607 159.966 374.911 155.27 369.04 155.27Z" fill="#2C56DD"/>
<path d="M1.67427 207.083C1.08713 207.083 0.5 207.67 0.5 208.257C0.5 208.844 1.08713 209.431 1.67427 209.431C2.2614 209.431 2.84854 208.991 2.84854 208.257C2.84854 207.523 2.2614 207.083 1.67427 207.083Z" fill="#2C56DD"/>
<path d="M8.42258 184.333C7.10163 184.333 6.07422 185.36 6.07422 186.681C6.07422 188.002 7.10163 189.03 8.42258 189.03C9.74353 189.03 10.7709 188.002 10.7709 186.681C10.7709 185.36 9.74353 184.333 8.42258 184.333Z" fill="#2C56DD"/>
<path d="M20.904 165.839C20.904 163.93 19.2895 162.316 17.3814 162.316C15.4734 162.316 13.8589 163.93 13.8589 165.839C13.8589 167.747 15.4734 169.361 17.3814 169.361C19.2895 169.361 20.904 167.747 20.904 165.839Z" fill="#2C56DD"/>
<path d="M28.394 150.72C30.8891 150.72 33.0907 148.665 33.0907 146.023C33.0907 143.381 31.0359 141.326 28.394 141.326C25.8989 141.326 23.6973 143.381 23.6973 146.023C23.844 148.665 25.8989 150.72 28.394 150.72Z" fill="#2C56DD"/>
<path d="M41.5873 133.396C44.8163 133.396 47.4583 130.754 47.4583 127.525C47.4583 124.296 44.8163 121.654 41.5873 121.654C38.3583 121.654 35.7163 124.296 35.7163 127.525C35.7163 130.901 38.3583 133.396 41.5873 133.396Z" fill="#2C56DD"/>
<path d="M56.5531 117.548C60.3692 117.548 63.5982 114.466 63.5982 110.503C63.5982 106.687 60.516 103.458 56.5531 103.458C52.7371 103.458 49.5081 106.54 49.5081 110.503C49.5081 114.466 52.7371 117.548 56.5531 117.548Z" fill="#2C56DD"/>
<path d="M73.2989 103.459C77.8488 103.459 81.3714 99.7893 81.3714 95.2393C81.3714 90.6894 77.7021 87.02 73.2989 87.02C68.7489 87.02 65.0796 90.6894 65.0796 95.2393C65.0796 99.7893 68.7489 103.459 73.2989 103.459Z" fill="#2C56DD"/>
<path d="M91.4858 91.2745C96.6228 91.2745 100.879 87.1648 100.879 82.0278C100.879 76.8907 96.7696 72.6343 91.4858 72.6343C86.3487 72.6343 82.239 76.7439 82.239 82.0278C82.0923 87.0181 86.3487 91.2745 91.4858 91.2745Z" fill="#2C56DD"/>
<path d="M111.164 81.1495C116.888 81.1495 121.585 76.4527 121.585 70.7285C121.585 65.0044 116.888 60.3076 111.164 60.3076C105.44 60.3076 100.743 65.0044 100.743 70.7285C100.743 76.4527 105.293 81.1495 111.164 81.1495Z" fill="#2C56DD"/>
<path d="M132.165 73.8086C138.036 73.8086 142.732 69.5521 143.613 63.828C145.961 67.2038 149.778 69.2586 154.034 69.2586C159.024 69.2586 163.281 66.4699 165.336 62.3602C167.831 65.736 171.94 67.9376 176.49 67.9376C180.6 67.9376 184.269 66.1763 186.765 63.3877C189.553 67.2038 193.957 69.6989 199.094 69.6989C202.323 69.6989 205.258 68.6715 207.753 67.057C208.34 67.9376 208.927 68.8183 209.661 69.5521C205.845 69.9925 202.323 71.607 199.681 74.1021C196.745 71.4602 192.929 69.8457 188.819 69.8457C183.536 69.8457 178.692 72.4876 175.757 76.4505C173.115 74.3957 169.886 73.2215 166.363 73.2215C160.199 73.2215 154.915 76.8908 152.566 82.0279C150.218 80.4134 147.429 79.5327 144.494 79.5327C137.595 79.5327 131.871 84.3763 130.403 90.6875C128.349 89.3666 126 88.7795 123.358 88.7795C115.873 88.7795 109.855 94.7972 109.855 102.283C107.947 101.255 105.892 100.521 103.544 100.521C96.4987 100.521 90.9213 106.099 90.9213 113.144C90.9213 114.318 91.0681 115.492 91.3617 116.666C89.6004 115.639 87.5455 114.905 85.1972 114.905C78.7391 114.905 73.4553 120.189 73.4553 126.647C73.4553 133.105 78.7391 138.389 85.1972 138.389C91.6552 138.389 96.9391 133.105 96.9391 126.647C96.9391 125.62 96.7923 124.739 96.4987 123.712C98.5536 125.033 100.902 125.766 103.397 125.766C110.149 125.766 115.726 120.336 116.02 113.584C118.074 114.905 120.57 115.639 123.212 115.639C123.505 115.639 123.652 115.639 123.945 115.639C121.157 118.281 119.249 121.804 118.955 125.913C118.074 125.766 117.194 125.62 116.166 125.62C107.947 125.62 101.342 132.224 101.342 140.444C101.342 141.031 101.342 141.618 101.489 142.205C100.902 142.058 100.462 142.058 99.8745 142.058C92.0955 142.058 85.7843 148.37 85.7843 156.149C85.7843 157.763 86.0778 159.231 86.5181 160.552C86.2246 160.552 85.931 160.552 85.6375 160.552C78.2988 160.552 72.4278 166.569 72.4278 173.761C72.4278 176.257 73.1617 178.605 74.3359 180.66C74.1891 180.66 74.0424 180.66 73.8956 180.66C66.9972 180.66 61.4198 186.237 61.4198 193.135C61.4198 196.805 62.8876 200.034 65.3827 202.235C65.2359 202.235 65.0892 202.235 64.7956 202.235C58.3376 202.235 53.0537 207.519 53.0537 213.977C53.0537 220.435 58.3376 225.719 64.7956 225.719C71.2537 225.719 76.5375 220.435 76.5375 213.977C76.5375 210.748 75.2165 207.813 73.0149 205.611C73.3085 205.611 73.602 205.611 73.8956 205.611C77.5649 205.611 80.794 203.997 82.9956 201.648C82.9956 201.795 82.9956 201.942 82.9956 202.089C82.9956 205.318 84.023 208.253 85.7843 210.602C80.5004 212.51 76.6843 217.647 76.6843 223.518C76.6843 227.627 78.5923 231.443 81.5278 233.939C76.9778 235.993 73.8956 240.543 73.8956 245.827C73.8956 250.817 76.6843 255.221 80.9407 257.422C76.9778 259.477 74.1891 263.587 74.1891 268.43C74.1891 274.301 78.2988 279.292 83.8762 280.466C80.0601 282.374 77.4182 286.337 77.4182 290.887C77.4182 297.345 82.702 302.629 89.1601 302.629C89.8939 302.629 90.6278 302.482 91.3617 302.482C86.9585 303.95 83.5826 308.059 83.5826 312.903C83.5826 319.067 88.573 323.911 94.5907 323.911C100.608 323.911 105.599 318.92 105.599 312.903C105.599 306.885 100.608 301.895 94.5907 301.895C93.8568 301.895 93.2697 301.895 92.5359 302.041C97.3794 300.574 100.755 296.171 100.755 290.887C100.755 290.593 100.755 290.3 100.608 290.006C102.37 292.061 104.865 293.382 107.507 294.116C105.599 296.317 104.425 299.253 104.425 302.482C104.425 309.674 110.295 315.398 117.341 315.398C117.487 315.398 117.487 315.398 117.634 315.398C116.166 317.453 115.286 319.948 115.286 322.59C115.286 329.341 120.863 334.919 127.615 334.919C128.936 334.919 130.11 334.772 131.137 334.332C129.963 336.24 129.229 338.441 129.229 340.79C129.229 347.248 134.513 352.532 140.971 352.532C143.76 352.532 146.255 351.504 148.31 349.89C146.695 351.798 145.668 354.293 145.668 357.082C145.668 363.246 150.658 368.236 156.823 368.236C162.987 368.236 167.978 363.246 167.978 357.082C167.978 354.146 166.803 351.504 164.895 349.449C166.363 349.449 167.831 349.156 169.152 348.715V348.862C169.152 354.146 172.087 358.696 176.49 360.898C175.903 360.751 175.169 360.751 174.436 360.751C168.711 360.751 164.015 365.448 164.015 371.172C164.015 377.043 168.711 381.74 174.436 381.74C180.16 381.74 185.003 377.043 185.003 371.172C185.003 367.209 182.802 363.686 179.426 361.925C180.453 362.219 181.628 362.365 182.655 362.365C185.297 362.365 187.792 361.632 189.847 360.311C190.434 366.915 196.011 372.199 202.763 372.199C206.432 372.199 209.808 370.732 212.156 368.236C213.037 374.107 218.174 378.657 224.339 378.657C229.035 378.657 233.145 376.015 235.2 372.199C236.227 377.63 241.071 381.593 246.648 381.593C252.666 381.593 257.656 377.043 258.243 371.172C258.684 376.896 263.38 381.593 269.251 381.593C275.416 381.593 280.406 376.602 280.406 370.438C280.406 364.42 275.563 359.577 269.545 359.43C270.572 358.403 271.453 357.228 272.04 355.907C274.535 358.403 277.911 360.017 281.727 360.017C283.195 360.017 284.516 359.723 285.837 359.43C283.048 361.338 281.287 364.567 281.287 368.09C281.287 373.961 285.984 378.657 291.855 378.657C297.579 378.657 302.276 373.961 302.276 368.09C302.276 362.365 297.579 357.669 291.855 357.669C290.827 357.669 289.8 357.815 288.919 358.109C292.001 356.201 294.35 353.119 295.084 349.596C297.285 351.504 300.221 352.678 303.45 352.678C310.642 352.678 316.366 346.807 316.366 339.762C316.366 339.616 316.366 339.616 316.366 339.469C318.421 340.936 320.916 341.817 323.558 341.817C330.456 341.817 335.887 336.24 335.887 329.488C335.887 328.167 335.74 326.993 335.3 325.966C337.208 327.14 339.409 327.874 341.758 327.874C348.216 327.874 353.5 322.59 353.5 316.132C353.5 313.343 352.472 310.848 350.858 308.793C352.766 310.408 355.261 311.582 358.05 311.582C364.214 311.582 369.204 306.591 369.204 300.427C369.204 294.262 364.214 289.272 358.05 289.272C355.114 289.272 352.325 290.446 350.417 292.354C350.417 290.887 350.124 289.419 349.683 288.098H349.83C355.114 288.098 359.664 285.016 361.866 280.759C361.719 281.493 361.719 282.08 361.719 282.814C361.719 288.538 366.416 293.235 372.287 293.235C378.011 293.235 382.854 288.538 382.854 282.814C382.854 276.943 378.158 272.393 372.287 272.393C368.324 272.393 364.801 274.595 363.04 277.971C363.333 276.943 363.48 275.916 363.48 274.742C363.48 272.1 362.746 269.605 361.425 267.55C368.03 266.963 373.314 261.532 373.314 254.634C373.314 250.964 371.846 247.588 369.351 245.24C375.222 244.359 379.772 239.222 379.772 233.058C379.772 228.361 377.13 224.251 373.314 222.197C378.745 221.169 382.708 216.326 382.708 210.748C382.708 204.731 378.158 199.74 372.14 199.153C377.864 198.713 382.414 194.016 382.414 188.145C382.414 181.981 377.424 176.99 371.259 176.99C365.095 176.99 360.104 181.981 360.104 188.145C360.104 193.869 364.508 198.566 369.938 199.153C363.774 199.594 358.93 204.584 358.93 210.748C358.93 215.152 361.425 218.968 365.095 221.022C359.224 222.05 354.821 227.04 354.821 233.205C354.821 236.58 356.141 239.663 358.49 241.864C352.179 242.745 347.335 248.176 347.335 254.634C347.335 256.982 347.922 259.33 349.096 261.238C341.904 261.679 336.18 267.55 336.18 274.742C336.18 276.063 336.327 277.384 336.767 278.704C336.621 278.704 336.327 278.704 336.18 278.704C328.401 278.704 321.943 285.016 321.943 292.942C321.943 293.235 321.943 293.675 321.943 293.969C321.209 293.822 320.475 293.822 319.742 293.822C312.256 293.822 306.092 299.4 305.064 306.445C303.743 306.151 302.422 305.858 300.955 305.858C294.79 305.858 289.506 309.527 287.011 314.811C283.929 312.316 279.966 311.288 276.003 312.022C271.453 312.903 267.93 315.838 266.169 319.801C263.234 316.572 258.977 314.958 254.281 315.545C249.877 316.132 246.208 318.92 244.153 322.59C241.658 319.508 237.842 317.599 233.585 317.453C229.623 317.453 226.1 319.067 223.605 321.709C221.99 318.187 219.055 315.398 215.092 314.224C210.982 312.903 206.579 313.783 203.35 316.132C202.469 312.169 199.827 308.793 196.011 306.885C192.195 305.124 188.086 305.124 184.563 306.738C184.416 302.922 182.655 299.106 179.426 296.464C176.344 293.969 172.381 293.088 168.711 293.675C169.592 289.859 168.858 285.75 166.363 282.374C163.721 278.851 159.758 276.943 155.649 276.943C157.263 273.274 157.263 269.017 155.208 265.201C153.447 261.679 150.365 259.477 146.842 258.45C149.044 255.661 150.071 251.845 149.484 248.029C148.75 243.772 146.255 240.397 142.879 238.342C146.108 235.847 148.31 231.884 148.163 227.334C148.163 223.371 146.255 219.701 143.466 217.206C146.842 215.445 149.631 212.363 150.658 208.253C151.686 204.29 150.805 200.327 148.603 197.098C152.126 196.218 155.355 194.016 157.41 190.64C159.465 186.971 159.758 182.861 158.437 179.192C162.4 179.339 166.363 177.871 169.299 174.642C172.087 171.56 173.261 167.45 172.674 163.487C176.344 164.368 180.307 163.781 183.682 161.432C187.058 159.084 189.113 155.415 189.553 151.452C193.076 153.213 197.332 153.653 201.148 151.892C204.818 150.424 207.46 147.489 208.634 143.966C211.423 146.461 215.092 147.782 219.055 147.342C223.458 146.902 227.127 144.553 229.182 141.031C231.384 144.26 235.053 146.461 239.31 146.755C243.419 147.049 247.089 145.581 249.731 142.939C251.198 146.461 254.134 149.544 258.097 150.865C262.206 152.186 266.463 151.599 269.839 149.25C270.572 153.066 272.921 156.589 276.737 158.644C279.819 160.405 283.342 160.699 286.424 159.965C286.718 160.405 287.158 160.992 287.598 161.432C287.745 164.368 288.919 167.157 290.974 169.505C291.121 169.652 291.121 169.652 291.268 169.798C298.166 176.99 314.311 194.603 311.229 218.234C310.495 224.105 313.724 227.04 317.98 222.49C343.519 194.897 339.556 161.139 338.969 157.176C338.822 154.534 338.235 152.186 337.354 149.837C337.648 148.37 337.795 146.902 337.795 145.434C337.795 138.389 334.419 132.078 329.135 127.968C329.429 126.647 329.575 125.326 329.575 124.005C329.575 115.199 324.145 107.713 316.513 104.631C316.366 94.7972 309.027 86.7246 299.634 85.2569C298.019 76.3037 290.24 69.6989 280.847 69.6989C280.553 69.6989 280.113 69.6989 279.819 69.6989C277.471 62.507 270.719 57.2232 262.647 57.2232C261.032 57.2232 259.564 57.3699 258.097 57.8103C255.455 51.9393 249.437 47.8296 242.539 47.8296C239.897 47.8296 237.255 48.4167 235.053 49.5909C232.264 44.7474 227.127 41.6652 221.11 41.6652C217.294 41.6652 213.771 42.9861 210.982 45.1877C208.194 41.3716 203.79 38.8765 198.8 38.8765C194.103 38.8765 189.7 41.0781 187.058 44.6006C184.416 41.3716 180.6 39.4636 176.197 39.4636C170.619 39.4636 165.629 42.8394 163.574 47.6829C161.226 44.8942 157.703 43.1329 153.741 43.1329C147.136 43.1329 141.705 48.1232 140.971 54.5812C138.77 51.7925 135.541 50.0313 131.724 50.0313C125.266 50.0313 120.129 55.3151 120.129 61.6264C120.57 68.6715 125.707 73.8086 132.165 73.8086Z" fill="#2C56DD"/>
<path d="M53.9344 374.256C53.4941 374.256 53.0537 374.697 53.0537 375.137C53.0537 375.577 53.4941 376.018 53.9344 376.018C54.3748 376.018 54.8151 375.577 54.8151 375.137C54.8151 374.55 54.3748 374.256 53.9344 374.256Z" fill="#2C56DD"/>
<path d="M43.3587 353.267C42.3313 353.267 41.5974 354.001 41.5974 355.028C41.5974 356.055 42.4781 356.789 43.3587 356.789C44.3862 356.789 45.12 355.909 45.12 355.028C45.12 354.001 44.3862 353.267 43.3587 353.267Z" fill="#2C56DD"/>
<path d="M34.9842 331.251C33.5165 331.251 32.3423 332.425 32.3423 333.893C32.3423 335.36 33.5165 336.535 34.9842 336.535C36.4519 336.535 37.6261 335.36 37.6261 333.893C37.7728 332.572 36.4519 331.251 34.9842 331.251Z" fill="#2C56DD"/>
<path d="M28.9714 308.649C26.9165 308.649 25.302 310.264 25.302 312.319C25.302 314.374 26.9165 315.988 28.9714 315.988C31.0262 315.988 32.6407 314.374 32.6407 312.319C32.494 310.264 30.8794 308.649 28.9714 308.649Z" fill="#2C56DD"/>
<path d="M29.5645 289.859C29.5645 287.364 27.5096 285.309 25.0144 285.309C22.5192 285.309 20.4644 287.364 20.4644 289.859C20.4644 292.354 22.5192 294.409 25.0144 294.409C27.6564 294.409 29.5645 292.354 29.5645 289.859Z" fill="#2C56DD"/>
<path d="M29.1124 267.255C29.1124 264.32 26.6173 261.825 23.6818 261.825C20.7464 261.825 18.2512 264.173 18.2512 267.255C18.2512 270.191 20.7464 272.686 23.6818 272.686C26.6173 272.686 29.1124 270.338 29.1124 267.255Z" fill="#2C56DD"/>
<path d="M18.4128 244.653C18.4128 248.175 21.2015 250.964 24.724 250.964C28.2466 250.964 31.0353 248.175 31.0353 244.653C31.0353 241.13 28.2466 238.341 24.724 238.341C21.2015 238.341 18.4128 241.13 18.4128 244.653Z" fill="#2C56DD"/>
<path d="M28.0903 229.533C32.0532 229.533 35.2823 226.304 35.2823 222.341C35.2823 218.378 32.0532 215.149 28.0903 215.149C24.1275 215.149 20.8984 218.378 20.8984 222.341C20.8984 226.304 24.1275 229.533 28.0903 229.533Z" fill="#2C56DD"/>
<path d="M34.2696 192.405C29.7196 192.405 26.197 196.074 26.197 200.477C26.197 204.88 29.8664 208.55 34.2696 208.55C38.8196 208.55 42.3422 204.88 42.3422 200.477C42.3422 196.074 38.8196 192.405 34.2696 192.405Z" fill="#2C56DD"/>
<path d="M43.364 188.737C48.3543 188.737 52.3172 184.627 52.3172 179.783C52.3172 174.793 48.3543 170.83 43.364 170.83C38.3737 170.83 34.4108 174.94 34.4108 179.783C34.264 184.774 38.3737 188.737 43.364 188.737Z" fill="#2C56DD"/>
<path d="M54.9472 170.24C60.3779 170.24 64.7811 165.837 64.7811 160.406C64.7811 154.975 60.3779 150.425 54.9472 150.425C49.5166 150.425 44.9666 154.829 44.9666 160.406C44.9666 165.837 49.5166 170.24 54.9472 170.24Z" fill="#2C56DD"/>
<path d="M79.9132 142.647C79.9132 136.63 75.0697 131.786 69.052 131.786C63.0342 131.786 58.1907 136.63 58.1907 142.647C58.1907 148.665 63.0342 153.509 69.052 153.509C75.0697 153.362 79.9132 148.518 79.9132 142.647Z" fill="#2C56DD"/>
</svg>
